<svg version="1.1" viewBox="0.0 0.0 593.1994750656168 442.92913385826773" fill="none" stroke="none" stroke-linecap="square" stroke-miterlimit="10" xmlns:xlink="http://www.w3.org/1999/xlink" xmlns="http://www.w3.org/2000/svg"><clipPath id="p.0"><path d="m0 0l593.19946 0l0 442.92914l-593.19946 0l0 -442.92914z" clip-rule="nonzero"/></clipPath><g clip-path="url(#p.0)"><path fill="#000000" fill-opacity="0.0" d="m0 0l593.19946 0l0 442.92914l-593.19946 0z" fill-rule="evenodd"/><path fill="#cccccc" d="m7.8241467 30.761612l0 0c0 -12.637571 10.244776 -22.882347 22.882349 -22.882347l127.27467 0c6.0687714 0 11.888992 2.410812 16.180267 6.702084c4.29126 4.291272 6.702072 10.111487 6.702072 16.180264l0 91.52664c0 12.637573 -10.244766 22.882355 -22.88234 22.882355l-127.27467 0l0 0c-12.637573 0 -22.882349 -10.2447815 -22.882349 -22.882355z" fill-rule="evenodd"/><path stroke="#f3f3f3" stroke-width="4.0" stroke-linejoin="round" stroke-linecap="butt" d="m7.8241467 30.761612l0 0c0 -12.637571 10.244776 -22.882347 22.882349 -22.882347l127.27467 0c6.0687714 0 11.888992 2.410812 16.180267 6.702084c4.29126 4.291272 6.702072 10.111487 6.702072 16.180264l0 91.52664c0 12.637573 -10.244766 22.882355 -22.88234 22.882355l-127.27467 0l0 0c-12.637573 0 -22.882349 -10.2447815 -22.882349 -22.882355z" fill-rule="evenodd"/><path fill="#000000" d="m70.47832 72.44493l0 -13.359375l2.6875 0l0 13.359375l-2.6875 0zm5.245804 -13.359375l4.9375 0q1.65625 0 2.53125 0.265625q1.1875 0.34375 2.015625 1.234375q0.84375 0.875 1.28125 2.15625q0.4375 1.28125 0.4375 3.15625q0 1.640625 -0.40625 2.84375q-0.5 1.453125 -1.4375 2.359375q-0.703125 0.671875 -1.890625 1.0625q-0.890625 0.28125 -2.390625 0.28125l-5.078125 0l0 -13.359375zm2.703125 2.265625l0 8.84375l2.015625 0q1.125 0 1.625 -0.125q0.65625 -0.171875 1.078125 -0.5625q0.4375 -0.390625 0.703125 -1.28125q0.28125 -0.90625 0.28125 -2.453125q0 -1.546875 -0.28125 -2.375q-0.265625 -0.828125 -0.765625 -1.28125q-0.484375 -0.46875 -1.234375 -0.640625q-0.5625 -0.125 -2.21875 -0.125l-1.203125 0zm15.390625 3.65625l0 -2.34375l9.328125 0l0 2.34375l-9.328125 0zm0 4.046875l0 -2.359375l9.328125 0l0 2.359375l-9.328125 0zm20.422012 -10.015625q1.9375 0 3.03125 1.375q1.296875 1.640625 1.296875 5.4375q0 3.796875 -1.3125 5.453125q-1.078125 1.375 -3.015625 1.375q-1.953125 0 -3.15625 -1.5q-1.1875 -1.5 -1.1875 -5.34375q0 -3.78125 1.3125 -5.4375q1.078125 -1.359375 3.03125 -1.359375zm0 2.125q-0.46875 0 -0.84375 0.296875q-0.359375 0.296875 -0.5625 1.0625q-0.25 0.984375 -0.25 3.328125q0 2.359375 0.234375 3.234375q0.234375 0.875 0.59375 1.171875q0.359375 0.296875 0.828125 0.296875q0.453125 0 0.8125 -0.296875q0.375 -0.296875 0.578125 -1.0625q0.265625 -0.984375 0.265625 -3.34375q0 -2.34375 -0.25 -3.21875q-0.234375 -0.875 -0.59375 -1.171875q-0.359375 -0.296875 -0.8125 -0.296875z" fill-rule="nonzero"/><path fill="#000000" d="m54.576702 94.44493l-2.96875 -9.671875l1.703125 0l1.53125 5.578125l0.578125 2.078125q0.046875 -0.15625 0.5 -2.0l1.546875 -5.65625l1.6875 0l1.4375 5.609375l0.484375 1.84375l0.5625 -1.859375l1.65625 -5.59375l1.5937538 0l-3.0312538 9.671875l-1.703125 0l-1.53125 -5.796875l-0.375 -1.640625l-1.953125 7.4375l-1.71875 0zm18.3167 -3.109375l1.6875 0.203125q-0.40625 1.484375 -1.484375 2.3125q-1.078125 0.8125 -2.765625 0.8125q-2.125 0 -3.375 -1.296875q-1.234375 -1.3125 -1.234375 -3.671875q0 -2.453125 1.25 -3.796875q1.265625 -1.34375 3.265625 -1.34375q1.9375 0 3.15625 1.328125q1.234375 1.3125 1.234375 3.703125q0 0.15625 0 0.4375l-7.21875 0q0.09375 1.59375 0.90625 2.453125q0.8125 0.84375 2.015625 0.84375q0.90625 0 1.546875 -0.46875q0.640625 -0.484375 1.015625 -1.515625zm-5.390625 -2.65625l5.40625 0q-0.109375 -1.21875 -0.625 -1.828125q-0.78125 -0.953125 -2.03125 -0.953125q-1.125 0 -1.90625 0.765625q-0.765625 0.75 -0.84375 2.015625zm9.141342 -5.703125l0 -1.890625l1.640625 0l0 1.890625l-1.640625 0zm0 11.46875l0 -9.671875l1.640625 0l0 9.671875l-1.640625 0zm3.8323212 0.796875l1.59375 0.234375q0.109375 0.75 0.5625 1.078125q0.609375 0.453125 1.671875 0.453125q1.140625 0 1.75 -0.453125q0.625 -0.453125 0.84375 -1.265625q0.125 -0.5 0.109375 -2.109375q-1.0625 1.265625 -2.671875 1.265625q-2.0 0 -3.09375 -1.4375q-1.09375 -1.4375 -1.09375 -3.453125q0 -1.390625 0.5 -2.5625q0.515625 -1.171875 1.453125 -1.796875q0.953125 -0.640625 2.25 -0.640625q1.703125 0 2.8125 1.375l0 -1.15625l1.515625 0l0 8.359375q0 2.265625 -0.46875 3.203125q-0.453125 0.9375 -1.453125 1.484375q-0.984375 0.546875 -2.453125 0.546875q-1.71875 0 -2.796875 -0.78125q-1.0625 -0.765625 -1.03125 -2.34375zm1.359375 -5.8125q0 1.90625 0.75 2.78125q0.765625 0.875 1.90625 0.875q1.125 0 1.890625 -0.859375q0.765625 -0.875 0.765625 -2.734375q0 -1.78125 -0.796875 -2.671875q-0.78125 -0.90625 -1.890625 -0.90625q-1.09375 0 -1.859375 0.890625q-0.765625 0.875 -0.765625 2.625zm9.328842 5.015625l0 -13.359375l1.640625 0l0 4.796875q1.140625 -1.328125 2.890625 -1.328125q1.078125 0 1.859375 0.421875q0.796875 0.421875 1.140625 1.171875q0.34375 0.75 0.34375 2.171875l0 6.125l-1.640625 0l0 -6.125q0 -1.234375 -0.53125 -1.796875q-0.53125 -0.5625 -1.515625 -0.5625q-0.71875 0 -1.359375 0.390625q-0.640625 0.375 -0.921875 1.015625q-0.265625 0.640625 -0.265625 1.78125l0 5.296875l-1.640625 0zm13.953842 -1.46875l0.234375 1.453125q-0.6875 0.140625 -1.234375 0.140625q-0.890625 0 -1.390625 -0.28125q-0.484375 -0.28125 -0.6875 -0.734375q-0.203125 -0.46875 -0.203125 -1.9375l0 -5.578125l-1.203125 0l0 -1.265625l1.203125 0l0 -2.390625l1.625 -0.984375l0 3.375l1.65625 0l0 1.265625l-1.65625 0l0 5.671875q0 0.6875 0.078125 0.890625q0.09375 0.203125 0.28125 0.328125q0.203125 0.109375 0.578125 0.109375q0.265625 0 0.71875 -0.0625zm15.413483 -6.390625l-8.828125 0l0 -1.515625l8.828125 0l0 1.515625zm0 4.0625l-8.828125 0l0 -1.53125l8.828125 0l0 1.53125zm13.172012 3.796875l-1.640625 0l0 -10.453125q-0.59375 0.5625 -1.5625 1.140625q-0.953125 0.5625 -1.71875 0.84375l0 -1.59375q1.375 -0.640625 2.40625 -1.5625q1.03125 -0.921875 1.453125 -1.78125l1.0625 0l0 13.40625z" fill-rule="nonzero"/><path fill="#cccccc" d="m412.74802 30.761612l0 0c0 -12.637571 10.2447815 -22.882347 22.882355 -22.882347l127.27466 0c6.0687866 0 11.889038 2.410812 16.180298 6.702084c4.29126 4.291272 6.7020874 10.111487 6.7020874 16.180264l0 91.52664c0 12.637573 -10.244812 22.882355 -22.882385 22.882355l-127.27466 0l0 0c-12.637573 0 -22.882355 -10.2447815 -22.882355 -22.882355z" fill-rule="evenodd"/><path stroke="#f3f3f3" stroke-width="4.0" stroke-linejoin="round" stroke-linecap="butt" d="m412.74802 30.761612l0 0c0 -12.637571 10.2447815 -22.882347 22.882355 -22.882347l127.27466 0c6.0687866 0 11.889038 2.410812 16.180298 6.702084c4.29126 4.291272 6.7020874 10.111487 6.7020874 16.180264l0 91.52664c0 12.637573 -10.244812 22.882355 -22.882385 22.882355l-127.27466 0l0 0c-12.637573 0 -22.882355 -10.2447815 -22.882355 -22.882355z" fill-rule="evenodd"/><path fill="#000000" d="m475.4022 72.44493l0 -13.359375l2.6875 0l0 13.359375l-2.6875 0zm5.245819 -13.359375l4.9375 0q1.65625 0 2.53125 0.265625q1.1875 0.34375 2.015625 1.234375q0.84375 0.875 1.28125 2.15625q0.4375 1.28125 0.4375 3.15625q0 1.640625 -0.40625 2.84375q-0.5 1.453125 -1.4375 2.359375q-0.703125 0.671875 -1.890625 1.0625q-0.890625 0.28125 -2.390625 0.28125l-5.078125 0l0 -13.359375zm2.703125 2.265625l0 8.84375l2.015625 0q1.125 0 1.625 -0.125q0.65625 -0.171875 1.078125 -0.5625q0.4375 -0.390625 0.703125 -1.28125q0.28125 -0.90625 0.28125 -2.453125q0 -1.546875 -0.28125 -2.375q-0.265625 -0.828125 -0.765625 -1.28125q-0.484375 -0.46875 -1.234375 -0.640625q-0.5625 -0.125 -2.21875 -0.125l-1.203125 0zm15.390625 3.65625l0 -2.34375l9.328125 0l0 2.34375l-9.328125 0zm0 4.046875l0 -2.359375l9.328125 0l0 2.359375l-9.328125 0zm22.640747 3.390625l-2.5625 0l0 -9.640625q-1.40625 1.3125 -3.3125 1.9375l0 -2.328125q1.015625 -0.328125 2.1875 -1.234375q1.171875 -0.921875 1.609375 -2.140625l2.078125 0l0 13.40625z" fill-rule="nonzero"/><path fill="#000000" d="m459.50058 94.44493l-2.96875 -9.671875l1.703125 0l1.53125 5.578125l0.578125 2.078125q0.046875 -0.15625 0.5 -2.0l1.546875 -5.65625l1.6875 0l1.4375 5.609375l0.484375 1.84375l0.5625 -1.859375l1.65625 -5.59375l1.59375 0l-3.03125 9.671875l-1.703125 0l-1.53125 -5.796875l-0.375 -1.640625l-1.953125 7.4375l-1.71875 0zm18.316711 -3.109375l1.6875 0.203125q-0.40625 1.484375 -1.484375 2.3125q-1.078125 0.8125 -2.765625 0.8125q-2.125 0 -3.375 -1.296875q-1.234375 -1.3125 -1.234375 -3.671875q0 -2.453125 1.25 -3.796875q1.265625 -1.34375 3.265625 -1.34375q1.9375 0 3.15625 1.328125q1.234375 1.3125 1.234375 3.703125q0 0.15625 0 0.4375l-7.21875 0q0.09375 1.59375 0.90625 2.453125q0.8125 0.84375 2.015625 0.84375q0.90625 0 1.546875 -0.46875q0.640625 -0.484375 1.015625 -1.515625zm-5.390625 -2.65625l5.40625 0q-0.109375 -1.21875 -0.625 -1.828125q-0.78125 -0.953125 -2.03125 -0.953125q-1.125 0 -1.90625 0.765625q-0.765625 0.75 -0.84375 2.015625zm9.141327 -5.703125l0 -1.890625l1.640625 0l0 1.890625l-1.640625 0zm0 11.46875l0 -9.671875l1.640625 0l0 9.671875l-1.640625 0zm3.8323364 0.796875l1.59375 0.234375q0.109375 0.75 0.5625 1.078125q0.609375 0.453125 1.671875 0.453125q1.140625 0 1.75 -0.453125q0.625 -0.453125 0.84375 -1.265625q0.125 -0.5 0.109375 -2.109375q-1.0625 1.265625 -2.671875 1.265625q-2.0 0 -3.09375 -1.4375q-1.09375 -1.4375 -1.09375 -3.453125q0 -1.390625 0.5 -2.5625q0.515625 -1.171875 1.453125 -1.796875q0.953125 -0.640625 2.25 -0.640625q1.703125 0 2.8125 1.375l0 -1.15625l1.515625 0l0 8.359375q0 2.265625 -0.46875 3.203125q-0.453125 0.9375 -1.453125 1.484375q-0.984375 0.546875 -2.453125 0.546875q-1.71875 0 -2.796875 -0.78125q-1.0625 -0.765625 -1.03125 -2.34375zm1.359375 -5.8125q0 1.90625 0.75 2.78125q0.765625 0.875 1.90625 0.875q1.125 0 1.890625 -0.859375q0.765625 -0.875 0.765625 -2.734375q0 -1.78125 -0.796875 -2.671875q-0.78125 -0.90625 -1.890625 -0.90625q-1.09375 0 -1.859375 0.890625q-0.765625 0.875 -0.765625 2.625zm9.328827 5.015625l0 -13.359375l1.640625 0l0 4.796875q1.140625 -1.328125 2.890625 -1.328125q1.078125 0 1.859375 0.421875q0.796875 0.421875 1.140625 1.171875q0.34375 0.75 0.34375 2.171875l0 6.125l-1.640625 0l0 -6.125q0 -1.234375 -0.53125 -1.796875q-0.53125 -0.5625 -1.515625 -0.5625q-0.71875 0 -1.359375 0.390625q-0.640625 0.375 -0.921875 1.015625q-0.265625 0.640625 -0.265625 1.78125l0 5.296875l-1.640625 0zm13.953857 -1.46875l0.234375 1.453125q-0.6875 0.140625 -1.234375 0.140625q-0.890625 0 -1.390625 -0.28125q-0.484375 -0.28125 -0.6875 -0.734375q-0.203125 -0.46875 -0.203125 -1.9375l0 -5.578125l-1.203125 0l0 -1.265625l1.203125 0l0 -2.390625l1.625 -0.984375l0 3.375l1.65625 0l0 1.265625l-1.65625 0l0 5.671875q0 0.6875 0.078125 0.890625q0.09375 0.203125 0.28125 0.328125q0.203125 0.109375 0.578125 0.109375q0.265625 0 0.71875 -0.0625zm15.413483 -6.390625l-8.828125 0l0 -1.515625l8.828125 0l0 1.515625zm0 4.0625l-8.828125 0l0 -1.53125l8.828125 0l0 1.53125zm15.500122 -6.28125l-1.625 0.125q-0.21875 -0.96875 -0.625 -1.40625q-0.65625 -0.703125 -1.640625 -0.703125q-0.78125 0 -1.375 0.4375q-0.765625 0.5625 -1.21875 1.65625q-0.453125 1.078125 -0.46875 3.078125q0.59375 -0.890625 1.453125 -1.328125q0.859375 -0.4375 1.796875 -0.4375q1.640625 0 2.78125 1.203125q1.15625 1.203125 1.15625 3.109375q0 1.265625 -0.546875 2.34375q-0.53125 1.078125 -1.484375 1.65625q-0.9375 0.578125 -2.140625 0.578125q-2.0625 0 -3.359375 -1.5q-1.28125 -1.515625 -1.28125 -4.984375q0 -3.875 1.421875 -5.625q1.25 -1.53125 3.375 -1.53125q1.5625 0 2.5625 0.890625q1.015625 0.875 1.21875 2.4375zm-6.6875 5.75q0 0.84375 0.359375 1.625q0.359375 0.765625 1.0 1.171875q0.640625 0.40625 1.359375 0.40625q1.03125 0 1.78125 -0.828125q0.75 -0.84375 0.75 -2.28125q0 -1.390625 -0.734375 -2.1875q-0.734375 -0.796875 -1.859375 -0.796875q-1.109375 0 -1.890625 0.796875q-0.765625 0.796875 -0.765625 2.09375z" fill-rule="nonzero"/><path fill="#cccccc" d="m7.8241467 321.4099l0 0c0 -12.637573 10.244776 -22.882355 22.882349 -22.882355l127.27467 0c6.0687714 0 11.888992 2.4108276 16.180267 6.7020874c4.29126 4.29126 6.702072 10.111481 6.702072 16.180267l0 91.52664c0 12.637573 -10.244766 22.882355 -22.88234 22.882355l-127.27467 0l0 0c-12.637573 0 -22.882349 -10.2447815 -22.882349 -22.882355z" fill-rule="evenodd"/><path stroke="#f3f3f3" stroke-width="4.0" stroke-linejoin="round" stroke-linecap="butt" d="m7.8241467 321.4099l0 0c0 -12.637573 10.244776 -22.882355 22.882349 -22.882355l127.27467 0c6.0687714 0 11.888992 2.4108276 16.180267 6.7020874c4.29126 4.29126 6.702072 10.111481 6.702072 16.180267l0 91.52664c0 12.637573 -10.244766 22.882355 -22.88234 22.882355l-127.27467 0l0 0c-12.637573 0 -22.882349 -10.2447815 -22.882349 -22.882355z" fill-rule="evenodd"/><path fill="#000000" d="m70.47832 363.09323l0 -13.359375l2.6875 0l0 13.359375l-2.6875 0zm5.245804 -13.359375l4.9375 0q1.65625 0 2.53125 0.265625q1.1875 0.34375 2.015625 1.234375q0.84375 0.875 1.28125 2.15625q0.4375 1.28125 0.4375 3.15625q0 1.640625 -0.40625 2.84375q-0.5 1.453125 -1.4375 2.359375q-0.703125 0.671875 -1.890625 1.0625q-0.890625 0.28125 -2.390625 0.28125l-5.078125 0l0 -13.359375zm2.703125 2.265625l0 8.84375l2.015625 0q1.125 0 1.625 -0.125q0.65625 -0.171875 1.078125 -0.5625q0.4375 -0.390625 0.703125 -1.28125q0.28125 -0.90625 0.28125 -2.453125q0 -1.546875 -0.28125 -2.375q-0.265625 -0.828125 -0.765625 -1.28125q-0.484375 -0.46875 -1.234375 -0.640625q-0.5625 -0.125 -2.21875 -0.125l-1.203125 0zm15.390625 3.65625l0 -2.34375l9.328125 0l0 2.34375l-9.328125 0zm0 4.046875l0 -2.359375l9.328125 0l0 2.359375l-9.328125 0zm16.000137 -0.15625l2.46875 -0.296875q0.125 0.953125 0.640625 1.453125q0.53125 0.5 1.265625 0.5q0.78125 0 1.328125 -0.59375q0.546875 -0.609375 0.546875 -1.640625q0 -0.953125 -0.53125 -1.515625q-0.515625 -0.578125 -1.25 -0.578125q-0.5 0 -1.1875 0.203125l0.28125 -2.09375q1.046875 0.03125 1.59375 -0.4375q0.546875 -0.484375 0.546875 -1.28125q0 -0.671875 -0.40625 -1.078125q-0.390625 -0.40625 -1.0625 -0.40625q-0.65625 0 -1.125 0.46875q-0.453125 0.453125 -0.5625 1.328125l-2.359375 -0.40625q0.25 -1.203125 0.734375 -1.921875q0.5 -0.734375 1.390625 -1.140625q0.890625 -0.421875 2.0 -0.421875q1.875 0 3.015625 1.203125q0.9375 0.984375 0.9375 2.21875q0 1.765625 -1.921875 2.8125q1.15625 0.234375 1.84375 1.09375q0.6875 0.859375 0.6875 2.0625q0 1.765625 -1.296875 3.015625q-1.28125 1.234375 -3.1875 1.234375q-1.8125 0 -3.015625 -1.046875q-1.1875 -1.046875 -1.375 -2.734375z" fill-rule="nonzero"/><path fill="#000000" d="m54.576702 385.09323l-2.96875 -9.671875l1.703125 0l1.53125 5.578125l0.578125 2.078125q0.046875 -0.15625 0.5 -2.0l1.546875 -5.65625l1.6875 0l1.4375 5.609375l0.484375 1.84375l0.5625 -1.859375l1.65625 -5.59375l1.5937538 0l-3.0312538 9.671875l-1.703125 0l-1.53125 -5.796875l-0.375 -1.640625l-1.953125 7.4375l-1.71875 0zm18.3167 -3.109375l1.6875 0.203125q-0.40625 1.484375 -1.484375 2.3125q-1.078125 0.8125 -2.765625 0.8125q-2.125 0 -3.375 -1.296875q-1.234375 -1.3125 -1.234375 -3.671875q0 -2.453125 1.25 -3.796875q1.265625 -1.34375 3.265625 -1.34375q1.9375 0 3.15625 1.328125q1.234375 1.3125 1.234375 3.703125q0 0.15625 0 0.4375l-7.21875 0q0.09375 1.59375 0.90625 2.453125q0.8125 0.84375 2.015625 0.84375q0.90625 0 1.546875 -0.46875q0.640625 -0.484375 1.015625 -1.515625zm-5.390625 -2.65625l5.40625 0q-0.109375 -1.21875 -0.625 -1.828125q-0.78125 -0.953125 -2.03125 -0.953125q-1.125 0 -1.90625 0.765625q-0.765625 0.75 -0.84375 2.015625zm9.141342 -5.703125l0 -1.890625l1.640625 0l0 1.890625l-1.640625 0zm0 11.46875l0 -9.671875l1.640625 0l0 9.671875l-1.640625 0zm3.8323212 0.796875l1.59375 0.234375q0.109375 0.75 0.5625 1.078125q0.609375 0.453125 1.671875 0.453125q1.140625 0 1.75 -0.453125q0.625 -0.453125 0.84375 -1.265625q0.125 -0.5 0.109375 -2.109375q-1.0625 1.265625 -2.671875 1.265625q-2.0 0 -3.09375 -1.4375q-1.09375 -1.4375 -1.09375 -3.453125q0 -1.390625 0.5 -2.5625q0.515625 -1.171875 1.453125 -1.796875q0.953125 -0.640625 2.25 -0.640625q1.703125 0 2.8125 1.375l0 -1.15625l1.515625 0l0 8.359375q0 2.265625 -0.46875 3.203125q-0.453125 0.9375 -1.453125 1.484375q-0.984375 0.546875 -2.453125 0.546875q-1.71875 0 -2.796875 -0.78125q-1.0625 -0.765625 -1.03125 -2.34375zm1.359375 -5.8125q0 1.90625 0.75 2.78125q0.765625 0.875 1.90625 0.875q1.125 0 1.890625 -0.859375q0.765625 -0.875 0.765625 -2.734375q0 -1.78125 -0.796875 -2.671875q-0.78125 -0.90625 -1.890625 -0.90625q-1.09375 0 -1.859375 0.890625q-0.765625 0.875 -0.765625 2.625zm9.328842 5.015625l0 -13.359375l1.640625 0l0 4.796875q1.140625 -1.328125 2.890625 -1.328125q1.078125 0 1.859375 0.421875q0.796875 0.421875 1.140625 1.171875q0.34375 0.75 0.34375 2.171875l0 6.125l-1.640625 0l0 -6.125q0 -1.234375 -0.53125 -1.796875q-0.53125 -0.5625 -1.515625 -0.5625q-0.71875 0 -1.359375 0.390625q-0.640625 0.375 -0.921875 1.015625q-0.265625 0.640625 -0.265625 1.78125l0 5.296875l-1.640625 0zm13.953842 -1.46875l0.234375 1.453125q-0.6875 0.140625 -1.234375 0.140625q-0.890625 0 -1.390625 -0.28125q-0.484375 -0.28125 -0.6875 -0.734375q-0.203125 -0.46875 -0.203125 -1.9375l0 -5.578125l-1.203125 0l0 -1.265625l1.203125 0l0 -2.390625l1.625 -0.984375l0 3.375l1.65625 0l0 1.265625l-1.65625 0l0 5.671875q0 0.6875 0.078125 0.890625q0.09375 0.203125 0.28125 0.328125q0.203125 0.109375 0.578125 0.109375q0.265625 0 0.71875 -0.0625zm15.413483 -6.390625l-8.828125 0l0 -1.515625l8.828125 0l0 1.515625zm0 4.0625l-8.828125 0l0 -1.53125l8.828125 0l0 1.53125zm12.250137 3.796875l0 -3.203125l-5.796875 0l0 -1.5l6.09375 -8.65625l1.34375 0l0 8.65625l1.796875 0l0 1.5l-1.796875 0l0 3.203125l-1.640625 0zm0 -4.703125l0 -6.015625l-4.1875 6.015625l4.1875 0z" fill-rule="nonzero"/><path fill="#cccccc" d="m412.74802 321.4099l0 0c0 -12.637573 10.2447815 -22.882355 22.882355 -22.882355l127.27466 0c6.0687866 0 11.889038 2.4108276 16.180298 6.7020874c4.29126 4.29126 6.7020874 10.111481 6.7020874 16.180267l0 91.52664c0 12.637573 -10.244812 22.882355 -22.882385 22.882355l-127.27466 0l0 0c-12.637573 0 -22.882355 -10.2447815 -22.882355 -22.882355z" fill-rule="evenodd"/><path stroke="#f3f3f3" stroke-width="4.0" stroke-linejoin="round" stroke-linecap="butt" d="m412.74802 321.4099l0 0c0 -12.637573 10.2447815 -22.882355 22.882355 -22.882355l127.27466 0c6.0687866 0 11.889038 2.4108276 16.180298 6.7020874c4.29126 4.29126 6.7020874 10.111481 6.7020874 16.180267l0 91.52664c0 12.637573 -10.244812 22.882355 -22.882385 22.882355l-127.27466 0l0 0c-12.637573 0 -22.882355 -10.2447815 -22.882355 -22.882355z" fill-rule="evenodd"/><path fill="#000000" d="m475.4022 363.09323l0 -13.359375l2.6875 0l0 13.359375l-2.6875 0zm5.245819 -13.359375l4.9375 0q1.65625 0 2.53125 0.265625q1.1875 0.34375 2.015625 1.234375q0.84375 0.875 1.28125 2.15625q0.4375 1.28125 0.4375 3.15625q0 1.640625 -0.40625 2.84375q-0.5 1.453125 -1.4375 2.359375q-0.703125 0.671875 -1.890625 1.0625q-0.890625 0.28125 -2.390625 0.28125l-5.078125 0l0 -13.359375zm2.703125 2.265625l0 8.84375l2.015625 0q1.125 0 1.625 -0.125q0.65625 -0.171875 1.078125 -0.5625q0.4375 -0.390625 0.703125 -1.28125q0.28125 -0.90625 0.28125 -2.453125q0 -1.546875 -0.28125 -2.375q-0.265625 -0.828125 -0.765625 -1.28125q-0.484375 -0.46875 -1.234375 -0.640625q-0.5625 -0.125 -2.21875 -0.125l-1.203125 0zm15.390625 3.65625l0 -2.34375l9.328125 0l0 2.34375l-9.328125 0zm0 4.046875l0 -2.359375l9.328125 0l0 2.359375l-9.328125 0zm24.734497 1.015625l0 2.375l-8.96875 0q0.140625 -1.34375 0.859375 -2.546875q0.734375 -1.21875 2.890625 -3.203125q1.734375 -1.625 2.125 -2.1875q0.53125 -0.796875 0.53125 -1.578125q0 -0.84375 -0.46875 -1.296875q-0.453125 -0.46875 -1.265625 -0.46875q-0.796875 0 -1.28125 0.484375q-0.46875 0.46875 -0.546875 1.59375l-2.546875 -0.25q0.234375 -2.109375 1.421875 -3.03125q1.203125 -0.921875 3.015625 -0.921875q1.96875 0 3.09375 1.0625q1.140625 1.0625 1.140625 2.65625q0 0.890625 -0.328125 1.71875q-0.3125 0.8125 -1.015625 1.703125q-0.46875 0.59375 -1.6875 1.703125q-1.203125 1.109375 -1.53125 1.484375q-0.3125 0.359375 -0.515625 0.703125l5.078125 0z" fill-rule="nonzero"/><path fill="#000000" d="m459.50058 385.09323l-2.96875 -9.671875l1.703125 0l1.53125 5.578125l0.578125 2.078125q0.046875 -0.15625 0.5 -2.0l1.546875 -5.65625l1.6875 0l1.4375 5.609375l0.484375 1.84375l0.5625 -1.859375l1.65625 -5.59375l1.59375 0l-3.03125 9.671875l-1.703125 0l-1.53125 -5.796875l-0.375 -1.640625l-1.953125 7.4375l-1.71875 0zm18.316711 -3.109375l1.6875 0.203125q-0.40625 1.484375 -1.484375 2.3125q-1.078125 0.8125 -2.765625 0.8125q-2.125 0 -3.375 -1.296875q-1.234375 -1.3125 -1.234375 -3.671875q0 -2.453125 1.25 -3.796875q1.265625 -1.34375 3.265625 -1.34375q1.9375 0 3.15625 1.328125q1.234375 1.3125 1.234375 3.703125q0 0.15625 0 0.4375l-7.21875 0q0.09375 1.59375 0.90625 2.453125q0.8125 0.84375 2.015625 0.84375q0.90625 0 1.546875 -0.46875q0.640625 -0.484375 1.015625 -1.515625zm-5.390625 -2.65625l5.40625 0q-0.109375 -1.21875 -0.625 -1.828125q-0.78125 -0.953125 -2.03125 -0.953125q-1.125 0 -1.90625 0.765625q-0.765625 0.75 -0.84375 2.015625zm9.141327 -5.703125l0 -1.890625l1.640625 0l0 1.890625l-1.640625 0zm0 11.46875l0 -9.671875l1.640625 0l0 9.671875l-1.640625 0zm3.8323364 0.796875l1.59375 0.234375q0.109375 0.75 0.5625 1.078125q0.609375 0.453125 1.671875 0.453125q1.140625 0 1.75 -0.453125q0.625 -0.453125 0.84375 -1.265625q0.125 -0.5 0.109375 -2.109375q-1.0625 1.265625 -2.671875 1.265625q-2.0 0 -3.09375 -1.4375q-1.09375 -1.4375 -1.09375 -3.453125q0 -1.390625 0.5 -2.5625q0.515625 -1.171875 1.453125 -1.796875q0.953125 -0.640625 2.25 -0.640625q1.703125 0 2.8125 1.375l0 -1.15625l1.515625 0l0 8.359375q0 2.265625 -0.46875 3.203125q-0.453125 0.9375 -1.453125 1.484375q-0.984375 0.546875 -2.453125 0.546875q-1.71875 0 -2.796875 -0.78125q-1.0625 -0.765625 -1.03125 -2.34375zm1.359375 -5.8125q0 1.90625 0.75 2.78125q0.765625 0.875 1.90625 0.875q1.125 0 1.890625 -0.859375q0.765625 -0.875 0.765625 -2.734375q0 -1.78125 -0.796875 -2.671875q-0.78125 -0.90625 -1.890625 -0.90625q-1.09375 0 -1.859375 0.890625q-0.765625 0.875 -0.765625 2.625zm9.328827 5.015625l0 -13.359375l1.640625 0l0 4.796875q1.140625 -1.328125 2.890625 -1.328125q1.078125 0 1.859375 0.421875q0.796875 0.421875 1.140625 1.171875q0.34375 0.75 0.34375 2.171875l0 6.125l-1.640625 0l0 -6.125q0 -1.234375 -0.53125 -1.796875q-0.53125 -0.5625 -1.515625 -0.5625q-0.71875 0 -1.359375 0.390625q-0.640625 0.375 -0.921875 1.015625q-0.265625 0.640625 -0.265625 1.78125l0 5.296875l-1.640625 0zm13.953857 -1.46875l0.234375 1.453125q-0.6875 0.140625 -1.234375 0.140625q-0.890625 0 -1.390625 -0.28125q-0.484375 -0.28125 -0.6875 -0.734375q-0.203125 -0.46875 -0.203125 -1.9375l0 -5.578125l-1.203125 0l0 -1.265625l1.203125 0l0 -2.390625l1.625 -0.984375l0 3.375l1.65625 0l0 1.265625l-1.65625 0l0 5.671875q0 0.6875 0.078125 0.890625q0.09375 0.203125 0.28125 0.328125q0.203125 0.109375 0.578125 0.109375q0.265625 0 0.71875 -0.0625zm15.413483 -6.390625l-8.828125 0l0 -1.515625l8.828125 0l0 1.515625zm0 4.0625l-8.828125 0l0 -1.53125l8.828125 0l0 1.53125zm7.000122 0.265625l1.640625 -0.21875q0.28125 1.40625 0.953125 2.015625q0.6875 0.609375 1.65625 0.609375q1.15625 0 1.953125 -0.796875q0.796875 -0.796875 0.796875 -1.984375q0 -1.125 -0.734375 -1.859375q-0.734375 -0.734375 -1.875 -0.734375q-0.46875 0 -1.15625 0.171875l0.1875 -1.4375q0.15625 0.015625 0.265625 0.015625q1.046875 0 1.875 -0.546875q0.84375 -0.546875 0.84375 -1.671875q0 -0.90625 -0.609375 -1.5q-0.609375 -0.59375 -1.578125 -0.59375q-0.953125 0 -1.59375 0.609375q-0.640625 0.59375 -0.8125 1.796875l-1.640625 -0.296875q0.296875 -1.640625 1.359375 -2.546875q1.0625 -0.90625 2.65625 -0.90625q1.09375 0 2.0 0.46875q0.921875 0.46875 1.40625 1.28125q0.5 0.8125 0.5 1.71875q0 0.859375 -0.46875 1.578125q-0.46875 0.703125 -1.375 1.125q1.1875 0.28125 1.84375 1.140625q0.65625 0.859375 0.65625 2.15625q0 1.734375 -1.28125 2.953125q-1.265625 1.21875 -3.21875 1.21875q-1.765625 0 -2.921875 -1.046875q-1.15625 -1.046875 -1.328125 -2.71875z" fill-rule="nonzero"/><path fill="#000000" fill-opacity="0.0" d="m180.86351 76.52493l231.87401 0" fill-rule="evenodd"/><path stroke="#f3f3f3" stroke-width="3.0" stroke-linejoin="round" stroke-linecap="butt" d="m180.86351 76.52493l213.87401 0" fill-rule="evenodd"/><path fill="#f3f3f3" stroke="#f3f3f3" stroke-width="3.0" stroke-linecap="butt" d="m394.73752 81.48013l13.614319 -4.9552l-13.614319 -4.9551926z" fill-rule="evenodd"/><path fill="#000000" fill-opacity="0.0" d="m499.26773 145.17061l0 153.35432" fill-rule="evenodd"/><path stroke="#f3f3f3" stroke-width="3.0" stroke-linejoin="round" stroke-linecap="butt" d="m499.26773 145.17061l0 135.35432" fill-rule="evenodd"/><path fill="#f3f3f3" stroke="#f3f3f3" stroke-width="3.0" stroke-linecap="butt" d="m494.31253 280.52493l4.9552 13.614288l4.9551697 -13.614288z" fill-rule="evenodd"/><path fill="#000000" fill-opacity="0.0" d="m174.61942 138.99213l243.24411 165.82678" fill-rule="evenodd"/><path stroke="#f3f3f3" stroke-width="3.0" stroke-linejoin="round" stroke-linecap="butt" d="m174.61942 138.99213l228.3714 155.68759" fill-rule="evenodd"/><path fill="#f3f3f3" stroke="#f3f3f3" stroke-width="3.0" stroke-linecap="butt" d="m400.19962 298.77402l14.040161 3.574463l-8.457764 -11.763031z" fill-rule="evenodd"/><path fill="#000000" fill-opacity="0.0" d="m416.979 138.99213l-241.03937 165.38583" fill-rule="evenodd"/><path stroke="#f3f3f3" stroke-width="3.0" stroke-linejoin="round" stroke-linecap="butt" d="m416.979 138.99213l-226.19717 155.20206" fill-rule="evenodd"/><path fill="#f3f3f3" stroke="#f3f3f3" stroke-width="3.0" stroke-linecap="butt" d="m187.97835 290.1083l-8.422409 11.788361l14.029373 -3.6166077z" fill-rule="evenodd"/><path fill="#000000" fill-opacity="0.0" d="m412.74802 367.17322l-231.87401 0" fill-rule="evenodd"/><path stroke="#f3f3f3" stroke-width="3.0" stroke-linejoin="round" stroke-linecap="butt" d="m412.74802 367.17322l-213.87401 0" fill-rule="evenodd"/><path fill="#f3f3f3" stroke="#f3f3f3" stroke-width="3.0" stroke-linecap="butt" d="m198.87401 362.21802l-13.614288 4.9552l13.614288 4.9552z" fill-rule="evenodd"/><path fill="#000000" fill-opacity="0.0" d="m94.343834 298.52756l0 -153.35432" fill-rule="evenodd"/><path stroke="#f3f3f3" stroke-width="3.0" stroke-linejoin="round" stroke-linecap="butt" d="m94.343834 298.52756l0 -135.35432" fill-rule="evenodd"/><path fill="#f3f3f3" stroke="#f3f3f3" stroke-width="3.0" stroke-linecap="butt" d="m99.29903 163.17323l-4.9551926 -13.614304l-4.9552 13.614304z" fill-rule="evenodd"/><path fill="#000000" fill-opacity="0.0" d="m231.57742 333.7139l130.4567 0l0 42.015747l-130.4567 0z" fill-rule="evenodd"/><path fill="#f3f3f3" d="m257.03864 360.6339l-2.9687347 -9.671875l1.703125 0l1.5312347 5.578125l0.578125 2.078125q0.046875 -0.15625 0.5 -2.0l1.546875 -5.65625l1.6875 0l1.4375 5.609375l0.484375 1.84375l0.5625 -1.859375l1.65625 -5.59375l1.59375 0l-3.03125 9.671875l-1.703125 0l-1.53125 -5.796875l-0.375 -1.640625l-1.953125 7.4375l-1.71875 0zm18.316711 -3.109375l1.6875 0.203125q-0.40625 1.484375 -1.484375 2.3125q-1.078125 0.8125 -2.765625 0.8125q-2.125 0 -3.375 -1.296875q-1.234375 -1.3125 -1.234375 -3.671875q0 -2.453125 1.25 -3.796875q1.265625 -1.34375 3.265625 -1.34375q1.9375 0 3.15625 1.328125q1.234375 1.3125 1.234375 3.703125q0 0.15625 0 0.4375l-7.21875 0q0.09375 1.59375 0.90625 2.453125q0.8125 0.84375 2.015625 0.84375q0.90625 0 1.546875 -0.46875q0.640625 -0.484375 1.015625 -1.515625zm-5.390625 -2.65625l5.40625 0q-0.109375 -1.21875 -0.625 -1.828125q-0.78125 -0.953125 -2.03125 -0.953125q-1.125 0 -1.90625 0.765625q-0.765625 0.75 -0.84375 2.015625zm9.141327 -5.703125l0 -1.890625l1.640625 0l0 1.890625l-1.640625 0zm0 11.46875l0 -9.671875l1.640625 0l0 9.671875l-1.640625 0zm3.8323364 0.796875l1.59375 0.234375q0.109375 0.75 0.5625 1.078125q0.609375 0.453125 1.671875 0.453125q1.140625 0 1.75 -0.453125q0.625 -0.453125 0.84375 -1.265625q0.125 -0.5 0.109375 -2.109375q-1.0625 1.265625 -2.671875 1.265625q-2.0 0 -3.09375 -1.4375q-1.09375 -1.4375 -1.09375 -3.453125q0 -1.390625 0.5 -2.5625q0.515625 -1.171875 1.453125 -1.796875q0.953125 -0.640625 2.25 -0.640625q1.703125 0 2.8125 1.375l0 -1.15625l1.515625 0l0 8.359375q0 2.265625 -0.46875 3.203125q-0.453125 0.9375 -1.453125 1.484375q-0.984375 0.546875 -2.453125 0.546875q-1.71875 0 -2.796875 -0.78125q-1.0625 -0.765625 -1.03125 -2.34375zm1.359375 -5.8125q0 1.90625 0.75 2.78125q0.765625 0.875 1.90625 0.875q1.125 0 1.890625 -0.859375q0.765625 -0.875 0.765625 -2.734375q0 -1.78125 -0.796875 -2.671875q-0.78125 -0.90625 -1.890625 -0.90625q-1.09375 0 -1.859375 0.890625q-0.765625 0.875 -0.765625 2.625zm9.328827 5.015625l0 -13.359375l1.640625 0l0 4.796875q1.140625 -1.328125 2.890625 -1.328125q1.078125 0 1.859375 0.421875q0.796875 0.421875 1.140625 1.171875q0.34375 0.75 0.34375 2.171875l0 6.125l-1.640625 0l0 -6.125q0 -1.234375 -0.53125 -1.796875q-0.53125 -0.5625 -1.515625 -0.5625q-0.71875 0 -1.359375 0.390625q-0.640625 0.375 -0.921875 1.015625q-0.265625 0.640625 -0.265625 1.78125l0 5.296875l-1.640625 0zm13.953857 -1.46875l0.234375 1.453125q-0.6875 0.140625 -1.234375 0.140625q-0.890625 0 -1.390625 -0.28125q-0.484375 -0.28125 -0.6875 -0.734375q-0.203125 -0.46875 -0.203125 -1.9375l0 -5.578125l-1.203125 0l0 -1.265625l1.203125 0l0 -2.390625l1.625 -0.984375l0 3.375l1.65625 0l0 1.265625l-1.65625 0l0 5.671875q0 0.6875 0.078125 0.890625q0.09375 0.203125 0.28125 0.328125q0.203125 0.109375 0.578125 0.109375q0.265625 0 0.71875 -0.0625zm15.413483 -6.390625l-8.828125 0l0 -1.515625l8.828125 0l0 1.515625zm0 4.0625l-8.828125 0l0 -1.53125l8.828125 0l0 1.53125zm15.609497 2.21875l0 1.578125l-8.828125 0q-0.015625 -0.59375 0.1875 -1.140625q0.34375 -0.90625 1.078125 -1.78125q0.75 -0.875 2.15625 -2.015625q2.171875 -1.78125 2.9375 -2.828125q0.765625 -1.046875 0.765625 -1.96875q0 -0.984375 -0.703125 -1.640625q-0.6875 -0.671875 -1.8125 -0.671875q-1.1875 0 -1.90625 0.71875q-0.703125 0.703125 -0.703125 1.953125l-1.6875 -0.171875q0.171875 -1.890625 1.296875 -2.875q1.140625 -0.984375 3.03125 -0.984375q1.921875 0 3.046875 1.0625q1.125 1.0625 1.125 2.640625q0 0.796875 -0.328125 1.578125q-0.328125 0.78125 -1.09375 1.640625q-0.75 0.84375 -2.53125 2.34375q-1.46875 1.234375 -1.890625 1.6875q-0.421875 0.4375 -0.6875 0.875l6.546875 0z" fill-rule="nonzero"/><path fill="#000000" fill-opacity="0.0" d="m231.57742 42.259842l130.4567 0l0 42.015747l-130.4567 0z" fill-rule="evenodd"/><path fill="#f3f3f3" d="m257.03864 69.17984l-2.9687347 -9.671875l1.703125 0l1.5312347 5.578125l0.578125 2.078125q0.046875 -0.15625 0.5 -2.0l1.546875 -5.65625l1.6875 0l1.4375 5.609375l0.484375 1.84375l0.5625 -1.859375l1.65625 -5.59375l1.59375 0l-3.03125 9.671875l-1.703125 0l-1.53125 -5.796875l-0.375 -1.640625l-1.953125 7.4375l-1.71875 0zm18.316711 -3.109375l1.6875 0.203125q-0.40625 1.484375 -1.484375 2.3125q-1.078125 0.8125 -2.765625 0.8125q-2.125 0 -3.375 -1.296875q-1.234375 -1.3125 -1.234375 -3.671875q0 -2.453125 1.25 -3.796875q1.265625 -1.34375 3.265625 -1.34375q1.9375 0 3.15625 1.328125q1.234375 1.3125 1.234375 3.703125q0 0.15625 0 0.4375l-7.21875 0q0.09375 1.59375 0.90625 2.453125q0.8125 0.84375 2.015625 0.84375q0.90625 0 1.546875 -0.46875q0.640625 -0.484375 1.015625 -1.515625zm-5.390625 -2.65625l5.40625 0q-0.109375 -1.21875 -0.625 -1.828125q-0.78125 -0.953125 -2.03125 -0.953125q-1.125 0 -1.90625 0.765625q-0.765625 0.75 -0.84375 2.015625zm9.141327 -5.703125l0 -1.890625l1.640625 0l0 1.890625l-1.640625 0zm0 11.46875l0 -9.671875l1.640625 0l0 9.671875l-1.640625 0zm3.8323364 0.796875l1.59375 0.234375q0.109375 0.75 0.5625 1.078125q0.609375 0.453125 1.671875 0.453125q1.140625 0 1.75 -0.453125q0.625 -0.453125 0.84375 -1.265625q0.125 -0.5 0.109375 -2.109375q-1.0625 1.265625 -2.671875 1.265625q-2.0 0 -3.09375 -1.4375q-1.09375 -1.4375 -1.09375 -3.453125q0 -1.390625 0.5 -2.5625q0.515625 -1.171875 1.453125 -1.796875q0.953125 -0.640625 2.25 -0.640625q1.703125 0 2.8125 1.375l0 -1.15625l1.515625 0l0 8.359375q0 2.265625 -0.46875 3.203125q-0.453125 0.9375 -1.453125 1.484375q-0.984375 0.546875 -2.453125 0.546875q-1.71875 0 -2.796875 -0.78125q-1.0625 -0.765625 -1.03125 -2.34375zm1.359375 -5.8125q0 1.90625 0.75 2.78125q0.765625 0.875 1.90625 0.875q1.125 0 1.890625 -0.859375q0.765625 -0.875 0.765625 -2.734375q0 -1.78125 -0.796875 -2.671875q-0.78125 -0.90625 -1.890625 -0.90625q-1.09375 0 -1.859375 0.890625q-0.765625 0.875 -0.765625 2.625zm9.328827 5.015625l0 -13.359375l1.640625 0l0 4.796875q1.140625 -1.328125 2.890625 -1.328125q1.078125 0 1.859375 0.421875q0.796875 0.421875 1.140625 1.171875q0.34375 0.75 0.34375 2.171875l0 6.125l-1.640625 0l0 -6.125q0 -1.234375 -0.53125 -1.796875q-0.53125 -0.5625 -1.515625 -0.5625q-0.71875 0 -1.359375 0.390625q-0.640625 0.375 -0.921875 1.015625q-0.265625 0.640625 -0.265625 1.78125l0 5.296875l-1.640625 0zm13.953857 -1.46875l0.234375 1.453125q-0.6875 0.140625 -1.234375 0.140625q-0.890625 0 -1.390625 -0.28125q-0.484375 -0.28125 -0.6875 -0.734375q-0.203125 -0.46875 -0.203125 -1.9375l0 -5.578125l-1.203125 0l0 -1.265625l1.203125 0l0 -2.390625l1.625 -0.984375l0 3.375l1.65625 0l0 1.265625l-1.65625 0l0 5.671875q0 0.6875 0.078125 0.890625q0.09375 0.203125 0.28125 0.328125q0.203125 0.109375 0.578125 0.109375q0.265625 0 0.71875 -0.0625zm15.413483 -6.390625l-8.828125 0l0 -1.515625l8.828125 0l0 1.515625zm0 4.0625l-8.828125 0l0 -1.53125l8.828125 0l0 1.53125zm13.171997 3.796875l-1.640625 0l0 -10.453125q-0.59375 0.5625 -1.5625 1.140625q-0.953125 0.5625 -1.71875 0.84375l0 -1.59375q1.375 -0.640625 2.40625 -1.5625q1.03125 -0.921875 1.453125 -1.78125l1.0625 0l0 13.40625z" fill-rule="nonzero"/><path fill="#000000" fill-opacity="0.0" d="m463.39108 287.0761l0 -130.4567l42.015747 0l0 130.4567z" fill-rule="evenodd"/><path fill="#f3f3f3" d="m490.31107 261.6149l-9.671875 2.96875l0 -1.703125l5.578125 -1.53125l2.078125 -0.578125q-0.15625 -0.046875 -2.0 -0.5l-5.65625 -1.546875l0 -1.6875l5.609375 -1.4375l1.84375 -0.484375l-1.859375 -0.5625l-5.59375 -1.65625l0 -1.59375l9.671875 3.03125l0 1.703125l-5.796875 1.53125l-1.640625 0.375l7.4375 1.953125l0 1.71875zm-3.109375 -18.316696l0.203125 -1.6875q1.484375 0.40625 2.3125 1.484375q0.8125 1.078125 0.8125 2.765625q0 2.125 -1.296875 3.375q-1.3125 1.234375 -3.671875 1.234375q-2.453125 0 -3.796875 -1.25q-1.34375 -1.265625 -1.34375 -3.265625q0 -1.9375 1.328125 -3.15625q1.3125 -1.234375 3.703125 -1.234375q0.15625 0 0.4375 0l0 7.21875q1.59375 -0.09375 2.453125 -0.90625q0.84375 -0.8125 0.84375 -2.015625q0 -0.90625 -0.46875 -1.546875q-0.484375 -0.640625 -1.515625 -1.015625zm-2.65625 5.390625l0 -5.40625q-1.21875 0.109375 -1.828125 0.625q-0.953125 0.78125 -0.953125 2.03125q0 1.125 0.765625 1.90625q0.75 0.765625 2.015625 0.84375zm-5.703125 -9.141342l-1.890625 0l0 -1.640625l1.890625 0l0 1.640625zm11.46875 0l-9.671875 0l0 -1.640625l9.671875 0l0 1.640625zm0.796875 -3.8323212l0.234375 -1.59375q0.75 -0.109375 1.078125 -0.5625q0.453125 -0.609375 0.453125 -1.671875q0 -1.140625 -0.453125 -1.75q-0.453125 -0.625 -1.265625 -0.84375q-0.5 -0.125 -2.109375 -0.109375q1.265625 1.0625 1.265625 2.671875q0 2.0 -1.4375 3.09375q-1.4375 1.09375 -3.453125 1.09375q-1.390625 0 -2.5625 -0.5q-1.171875 -0.515625 -1.796875 -1.453125q-0.640625 -0.953125 -0.640625 -2.25q0 -1.703125 1.375 -2.8125l-1.15625 0l0 -1.515625l8.359375 0q2.265625 0 3.203125 0.46875q0.9375 0.453125 1.484375 1.453125q0.546875 0.984375 0.546875 2.453125q0 1.71875 -0.78125 2.796875q-0.765625 1.0625 -2.34375 1.03125zm-5.8125 -1.359375q1.90625 0 2.78125 -0.75q0.875 -0.765625 0.875 -1.90625q0 -1.125 -0.859375 -1.890625q-0.875 -0.765625 -2.734375 -0.765625q-1.78125 0 -2.671875 0.796875q-0.90625 0.78125 -0.90625 1.890625q0 1.09375 0.890625 1.859375q0.875 0.765625 2.625 0.765625zm5.015625 -9.328842l-13.359375 0l0 -1.640625l4.796875 0q-1.328125 -1.140625 -1.328125 -2.890625q0 -1.078125 0.421875 -1.859375q0.421875 -0.796875 1.171875 -1.140625q0.75 -0.34375 2.171875 -0.34375l6.125 0l0 1.640625l-6.125 0q-1.234375 0 -1.796875 0.53125q-0.5625 0.53125 -0.5625 1.515625q0 0.71875 0.390625 1.359375q0.375 0.640625 1.015625 0.921875q0.640625 0.265625 1.78125 0.265625l5.296875 0l0 1.640625zm-1.46875 -13.953842l1.453125 -0.234375q0.140625 0.6875 0.140625 1.234375q0 0.890625 -0.28125 1.390625q-0.28125 0.484375 -0.734375 0.6875q-0.46875 0.203125 -1.9375 0.203125l-5.578125 0l0 1.203125l-1.265625 0l0 -1.203125l-2.390625 0l-0.984375 -1.625l3.375 0l0 -1.65625l1.265625 0l0 1.65625l5.671875 0q0.6875 0 0.890625 -0.078125q0.203125 -0.09375 0.328125 -0.28125q0.109375 -0.203125 0.109375 -0.578125q0 -0.265625 -0.0625 -0.71875zm-6.390625 -15.413483l0 8.828125l-1.515625 0l0 -8.828125l1.515625 0zm4.0625 0l0 8.828125l-1.53125 0l0 -8.828125l1.53125 0zm0.296875 -7.0001373l-0.140625 -1.71875q1.25 -0.1875 1.890625 -0.875q0.625 -0.703125 0.625 -1.6875q0 -1.1875 -0.890625 -2.0q-0.890625 -0.828125 -2.359375 -0.828125q-1.40625 0 -2.21875 0.796875q-0.8125 0.78125 -0.8125 2.0625q0 0.78125 0.359375 1.421875q0.359375 0.640625 0.9375 1.0l-0.203125 1.546875l-6.859375 -1.296875l0 -6.640625l1.5625 0l0 5.328125l3.59375 0.71875q-0.84375 -1.203125 -0.84375 -2.515625q0 -1.75 1.21875 -2.953125q1.203125 -1.203125 3.109375 -1.203125q1.8125 0 3.140625 1.046875q1.625 1.296875 1.625 3.515625q0 1.8125 -1.015625 2.96875q-1.03125 1.15625 -2.71875 1.3125z" fill-rule="nonzero"/><path fill="#000000" fill-opacity="0.0" d="m58.81365 287.07742l0 -130.4567l42.01575 0l0 130.4567z" fill-rule="evenodd"/><path fill="#f3f3f3" d="m85.73365 261.6162l-9.671875 2.96875l0 -1.703125l5.578125 -1.53125l2.078125 -0.578125q-0.15625 -0.046875 -2.0 -0.5l-5.65625 -1.546875l0 -1.6875l5.609375 -1.4375l1.84375 -0.484375l-1.859375 -0.5625l-5.59375 -1.65625l0 -1.59375l9.671875 3.03125l0 1.703125l-5.796875 1.53125l-1.640625 0.375l7.4375 1.953125l0 1.71875zm-3.109375 -18.316696l0.203125 -1.6875q1.484375 0.40625 2.3125 1.484375q0.8125 1.078125 0.8125 2.765625q0 2.125 -1.296875 3.375q-1.3125 1.234375 -3.671875 1.234375q-2.453125 0 -3.796875 -1.25q-1.34375 -1.265625 -1.34375 -3.265625q0 -1.9375 1.328125 -3.15625q1.3125 -1.234375 3.703125 -1.234375q0.15625 0 0.4375 0l0 7.21875q1.59375 -0.09375 2.453125 -0.90625q0.84375 -0.8125 0.84375 -2.015625q0 -0.90625 -0.46875 -1.546875q-0.484375 -0.640625 -1.515625 -1.015625zm-2.65625 5.390625l0 -5.40625q-1.21875 0.109375 -1.828125 0.625q-0.953125 0.78125 -0.953125 2.03125q0 1.125 0.765625 1.90625q0.75 0.765625 2.015625 0.84375zm-5.703125 -9.141342l-1.890625 0l0 -1.640625l1.890625 0l0 1.640625zm11.46875 0l-9.671875 0l0 -1.640625l9.671875 0l0 1.640625zm0.796875 -3.8323212l0.234375 -1.59375q0.75 -0.109375 1.078125 -0.5625q0.453125 -0.609375 0.453125 -1.671875q0 -1.140625 -0.453125 -1.75q-0.453125 -0.625 -1.265625 -0.84375q-0.5 -0.125 -2.109375 -0.109375q1.265625 1.0625 1.265625 2.671875q0 2.0 -1.4375 3.09375q-1.4375 1.09375 -3.453125 1.09375q-1.390625 0 -2.5625 -0.5q-1.171875 -0.515625 -1.796875 -1.453125q-0.640625 -0.953125 -0.640625 -2.25q0 -1.703125 1.375 -2.8125l-1.15625 0l0 -1.515625l8.359375 0q2.265625 0 3.203125 0.46875q0.9375 0.453125 1.484375 1.453125q0.546875 0.984375 0.546875 2.453125q0 1.71875 -0.78125 2.796875q-0.765625 1.0625 -2.34375 1.03125zm-5.8125 -1.359375q1.90625 0 2.78125 -0.75q0.875 -0.765625 0.875 -1.90625q0 -1.125 -0.859375 -1.890625q-0.875 -0.765625 -2.734375 -0.765625q-1.78125 0 -2.671875 0.796875q-0.90625 0.78125 -0.90625 1.890625q0 1.09375 0.890625 1.859375q0.875 0.765625 2.625 0.765625zm5.015625 -9.328842l-13.359375 0l0 -1.640625l4.796875 0q-1.328125 -1.140625 -1.328125 -2.890625q0 -1.078125 0.421875 -1.859375q0.421875 -0.796875 1.171875 -1.140625q0.75 -0.34375 2.171875 -0.34375l6.125 0l0 1.640625l-6.125 0q-1.234375 0 -1.796875 0.53125q-0.5625 0.53125 -0.5625 1.515625q0 0.71875 0.390625 1.359375q0.375 0.640625 1.015625 0.921875q0.640625 0.265625 1.78125 0.265625l5.296875 0l0 1.640625zm-1.46875 -13.953842l1.453125 -0.234375q0.140625 0.6875 0.140625 1.234375q0 0.890625 -0.28125 1.390625q-0.28125 0.484375 -0.734375 0.6875q-0.46875 0.203125 -1.9375 0.203125l-5.578125 0l0 1.203125l-1.265625 0l0 -1.203125l-2.390625 0l-0.984375 -1.625l3.375 0l0 -1.65625l1.265625 0l0 1.65625l5.671875 0q0.6875 0 0.890625 -0.078125q0.203125 -0.09375 0.328125 -0.28125q0.109375 -0.203125 0.109375 -0.578125q0 -0.265625 -0.0625 -0.71875zm-6.390625 -15.413483l0 8.828125l-1.515625 0l0 -8.828125l1.515625 0zm4.0625 0l0 8.828125l-1.53125 0l0 -8.828125l1.53125 0zm0.265625 -7.0001373l-0.21875 -1.640625q1.40625 -0.28125 2.015625 -0.953125q0.609375 -0.6875 0.609375 -1.65625q0 -1.15625 -0.796875 -1.953125q-0.796875 -0.796875 -1.984375 -0.796875q-1.125 0 -1.859375 0.734375q-0.734375 0.734375 -0.734375 1.875q0 0.46875 0.171875 1.15625l-1.4375 -0.1875q0.015625 -0.15625 0.015625 -0.265625q0 -1.046875 -0.546875 -1.875q-0.546875 -0.84375 -1.671875 -0.84375q-0.90625 0 -1.5 0.609375q-0.59375 0.609375 -0.59375 1.578125q0 0.953125 0.609375 1.59375q0.59375 0.640625 1.796875 0.8125l-0.296875 1.640625q-1.640625 -0.296875 -2.546875 -1.359375q-0.90625 -1.0625 -0.90625 -2.65625q0 -1.09375 0.46875 -2.0q0.46875 -0.921875 1.28125 -1.40625q0.8125 -0.5 1.71875 -0.5q0.859375 0 1.578125 0.46875q0.703125 0.46875 1.125 1.375q0.28125 -1.1875 1.140625 -1.84375q0.859375 -0.65625 2.15625 -0.65625q1.734375 0 2.953125 1.28125q1.21875 1.265625 1.21875 3.21875q0 1.765625 -1.046875 2.921875q-1.046875 1.15625 -2.71875 1.328125z" fill-rule="nonzero"/><path fill="#000000" fill-opacity="0.0" d="m201.72911 115.65915l107.93703 73.25984l-23.590576 34.771652l-107.937 -73.25984z" fill-rule="evenodd"/><path fill="#f3f3f3" d="m207.68004 152.23323l2.9736633 -9.670944l1.409195 0.9564667l-1.8647308 5.4759674l-0.68836975 2.0443726q0.12651062 -0.10296631 1.53656 -1.3742523l4.45549 -3.8119812l1.3962555 0.9476776l-1.9598389 5.449188l-0.63435364 1.7977753l1.5093231 -1.2227936l4.510895 -3.6988373l1.3186951 0.8950348l-7.9381714 6.301407l-1.409195 -0.9564514l1.9875488 -5.6569977l0.6108246 -1.5682526l-5.7916718 5.0578613l-1.4221191 -0.9652405zm16.901215 7.713394l1.2822113 1.1157684q-1.1694946 1.0002136 -2.5264893 1.0800476q-1.3482208 0.06689453 -2.7444916 -0.8807831q-1.758255 -1.1933746 -2.0644226 -2.968567q-0.2844696 -1.7793427 1.0401611 -3.731781q1.377243 -2.0300293 3.1659393 -2.4400177q1.8016205 -0.40122986 3.4564514 0.72195435q1.6031189 1.0880737 1.8658752 2.8715668q0.2844696 1.7793427 -1.0576935 3.7576447q-0.08772278 0.12930298 -0.24562073 0.3620453l-5.9729156 -4.0539703q-0.8171997 1.3715057 -0.6274109 2.5389557q0.19857788 1.1545105 1.1940613 1.8301849q0.7498474 0.50894165 1.5430756 0.48080444q0.80200195 -0.0410614 1.6912689 -0.68385315zm-2.9689941 -5.2254333l4.4732056 3.036087q0.59375 -1.0699615 0.50923157 -1.8638153q-0.111312866 -1.227478 -1.1455841 -1.9294586q-0.9308319 -0.63179016 -2.0070953 -0.43695068q-1.0545654 0.19067383 -1.8297577 1.1941376zm10.765579 0.41419983l1.0614471 -1.5645447l1.3574829 0.9213562l-1.0614471 1.5645447l-1.3574829 -0.9213562zm-6.4388733 9.490677l5.4300537 -8.003723l1.3574829 0.92137146l-5.430069 8.003723l-1.3574677 -0.92137146zm2.723526 2.8116302l1.1871033 1.0889893q-0.3305664 0.6820679 -0.13986206 1.2080688q0.2498169 0.7171936 1.1289368 1.3138885q0.94377136 0.64056396 1.7023773 0.60780334q0.77153015 -0.023971558 1.4086914 -0.5735016q0.38414 -0.34355164 1.274765 -1.6841278q-1.5896912 0.45063782 -2.9213104 -0.45317078q-1.6548309 -1.123169 -1.7527618 -2.9269867q-0.09794617 -1.8038025 1.0336914 -3.4717865q0.7807312 -1.1507721 1.8523712 -1.8397369q1.084549 -0.68019104 2.2111511 -0.67089844q1.1482849 0.005126953 2.221344 0.7334442q1.409195 0.9564514 1.5551453 2.7173157l0.64915466 -0.9568176l1.2540436 0.8511505l-4.6931763 6.9176025q-1.2719879 1.8748627 -2.1861877 2.3874207q-0.9012604 0.5213318 -2.0357056 0.41229248q-1.121521 -0.100250244 -2.3367767 -0.9250946q-1.4221191 -0.9652252 -1.8755646 -2.2171936q-0.44929504 -1.2302704 0.4625702 -2.5186615zm4.388077 -4.04657q-1.0702362 1.5774689 -0.94091797 2.7227478q0.14224243 1.1540527 1.0860138 1.7946167q0.93084717 0.6317749 2.046814 0.3506012q1.1247406 -0.29412842 2.1686401 -1.8328094q1.0000458 -1.4740295 0.8407135 -2.658554q-0.13761902 -1.1886902 -1.0555267 -1.8117065q-0.9049988 -0.61424255 -2.038498 -0.30718994q-1.1247406 0.29411316 -2.1072388 1.7422943zm4.9029083 9.389542l7.5003357 -11.055237l1.3574677 0.92137146l-2.6931 3.9695282q1.6894226 -0.4584961 3.1374054 0.524292q0.89204407 0.6054535 1.3016205 1.3933105q0.42248535 0.79663086 0.2858429 1.610321q-0.13664246 0.8136902 -0.93492126 1.9903259l-3.4387512 5.0686035l-1.3574829 -0.9213562l3.4387512 -5.0686035q0.6930084 -1.0214691 0.5692444 -1.7852936q-0.12374878 -0.7638397 -0.9382477 -1.3166504q-0.59469604 -0.40364075 -1.3440704 -0.44015503q-0.7406006 -0.049453735 -1.3329773 0.32273865q-0.57943726 0.3809662 -1.2198181 1.3248596l-2.973816 4.383301l-1.3574829 -0.9213562zm12.370224 6.6208954l-0.62190247 1.3341217q-0.64779663 -0.26971436 -1.100296 -0.57684326q-0.73690796 -0.5001526 -0.99272156 -1.0137024q-0.24287415 -0.50476074 -0.15653992 -0.99380493q0.09509277 -0.5019684 0.919693 -1.7174072l3.1317139 -4.616028l-0.9954834 -0.67567444l0.71055603 -1.0473328l0.9954834 0.6756592l1.3421631 -1.978302l1.8972168 0.09799194l-1.8948212 2.7928925l1.3704071 0.93014526l-0.71055603 1.0473328l-1.3704071 -0.93013l-3.1843567 4.693619q-0.38598633 0.56892395 -0.43537903 0.7808838q-0.036468506 0.2207489 0.04849243 0.42948914q0.106658936 0.20457458 0.4169464 0.4151764q0.21977234 0.14916992 0.62979126 0.35191345zm16.341248 3.3676605l-7.304535 -4.957794l0.85092163 -1.2542114l7.3045044 4.957779l-0.8508911 1.2542267zm-2.2808228 3.3618164l-7.304535 -4.957779l0.8597107 -1.2671509l7.3045044 4.957779l-0.8596802 1.2671509zm11.669891 10.602219l-0.8859863 1.3059387l-7.304535 -4.957779q0.32040405 -0.5001221 0.7955017 -0.8386078q0.7932129 -0.5569 1.8921204 -0.8685608q1.1118164 -0.30288696 2.915741 -0.4570465q2.7970886 -0.2543335 4.0183105 -0.6906738q1.2212524 -0.4363556 1.7388 -1.199234q0.55267334 -0.81459045 0.33932495 -1.7525177q-0.19165039 -0.9420929 -1.1224976 -1.573883q-0.98254395 -0.6668854 -1.9807739 -0.47573853q-0.976532 0.1869812 -1.6783142 1.2213898l-1.2997742 -1.08992q1.2036743 -1.4680176 2.6871643 -1.6508179q1.4964294 -0.17404175 3.0607605 0.88772583q1.5901794 1.0792999 1.9244995 2.590332q0.3343506 1.5110321 -0.55166626 2.8169708q-0.4473877 0.6594391 -1.1575012 1.1216736q-0.7101135 0.4622345 -1.8260803 0.74342346q-1.0942688 0.27702332 -3.4102478 0.5179901q-1.9082642 0.19664001 -2.5117188 0.33468628q-0.59469604 0.12512207 -1.0601196 0.33799744l5.416992 3.676651z" fill-rule="nonzero"/><path fill="#000000" fill-opacity="0.0" d="m286.83865 186.08473l106.96063 -74.67716l24.062988 34.456688l-106.96063 74.67717z" fill-rule="evenodd"/><path fill="#f3f3f3" d="m323.12576 193.58191l-7.9718933 -6.2301636l1.3964539 -0.9749603l4.4493103 3.6967316l1.6638794 1.3728333q-0.05102539 -0.15493774 -0.73513794 -1.9259644l-1.9701843 -5.522873l1.3836365 -0.9660187l4.39032 3.7760162l1.4528198 1.2343445l-0.60339355 -1.8464508l-1.8447266 -5.5342407l1.3067932 -0.9123535l3.052246 9.664886l-1.3964539 0.9749756l-4.5745544 -3.8760834l-1.2468262 -1.1304169l2.656952 7.2158203l-1.4092407 0.98391724zm13.23819 -13.034805l1.499939 -0.79948425q0.51678467 1.4495544 0.106933594 2.7456818q-0.41879272 1.2833252 -1.8024292 2.2493439q-1.7423401 1.2164764 -3.5097961 0.8687744q-1.7635803 -0.3694458 -3.1144714 -2.3038025q-1.404541 -2.0112457 -1.1490173 -3.8285065q0.26837158 -1.8262024 1.9082336 -2.971115q1.588623 -1.1091461 3.3483582 -0.7179413q1.7635803 0.3694458 3.1323547 2.3294373q0.08944702 0.12809753 0.25048828 0.35868835l-5.918915 4.132431q0.9893799 1.2529907 2.1476135 1.4924316q1.149292 0.2266388 2.1357727 -0.46209717q0.7430725 -0.51878357 0.9999695 -1.2698212q0.2479248 -0.763855 -0.03503418 -1.8240204zm-5.9408264 0.9081421l4.43277 -3.0948486q-0.7874756 -0.93659973 -1.5591431 -1.141037q-1.1863098 -0.334198 -2.2112122 0.38137817q-0.9224243 0.64401245 -1.1246338 1.7189484q-0.19836426 1.0531921 0.46221924 2.135559zm4.22995 -9.908829l-1.082489 -1.5500488l1.3452148 -0.9391937l1.082489 1.5500641l-1.3452148 0.93917847zm6.566498 9.402832l-5.537689 -7.9296265l1.3452148 -0.9391937l5.537689 7.9296417l-1.3452148 0.93917847zm3.5985107 -1.5405121l1.440979 -0.7201996q0.519104 0.55229187 1.0784912 0.56192017q0.75909424 0.022659302 1.6302795 -0.58558655q0.9352417 -0.6529541 1.1754456 -1.373291q0.25302124 -0.7292938 -0.032836914 -1.5206604q-0.18377686 -0.4814911 -1.118042 -1.7920074q-0.14654541 1.645874 -1.4661255 2.5671692q-1.6398621 1.1449127 -3.3597412 0.5924835q-1.7198486 -0.5524292 -2.8739014 -2.2049713q-0.7962036 -1.1401215 -1.0572205 -2.3871307q-0.24816895 -1.2559509 0.16265869 -2.3050537q0.41470337 -1.0708466 1.4780579 -1.8132477q1.3964539 -0.9749603 3.0933533 -0.48272705l-0.6620178 -0.9479675l1.2427063 -0.86763l4.7862244 6.8535614q1.2971802 1.8575134 1.4496155 2.8944702q0.16522217 1.0280151 -0.34158325 2.0488434q-0.49401855 1.0118713 -1.6982727 1.8526764q-1.4092712 0.983902 -2.74057 0.9605713q-1.3095398 -0.019485474 -2.1875 -1.3312225zm-2.213379 -5.54364q1.0914307 1.5628662 2.207367 1.8509064q1.1287537 0.27908325 2.0639954 -0.37387085q0.9224243 -0.64401245 1.058136 -1.7868652q0.12680054 -1.1556702 -0.9378052 -2.6801147q-1.019867 -1.4603882 -2.183197 -1.7344055q-1.1594543 -0.2957611 -2.0690613 0.3393097q-0.89682007 0.6261139 -1.0146484 1.7946014q-0.12677002 1.1556702 0.8752136 2.5904388zm10.520782 -1.2282257l-7.6490173 -10.952896l1.3452148 -0.93917847l2.7464905 3.932785q0.17480469 -1.7418518 1.6096802 -2.7436523q0.8840027 -0.61717224 1.7661133 -0.7185211q0.894928 -0.110305786 1.6062012 0.30781555q0.7112732 0.41812134 1.5253906 1.5838623l3.506897 5.0216827l-1.3452148 0.93917847l-3.506897 -5.0216675q-0.7067566 -1.0120239 -1.4644165 -1.1690826q-0.7576294 -0.15705872 -1.5647583 0.40646362q-0.58932495 0.41145325 -0.8909607 1.0984344q-0.31054688 0.6741791 -0.17437744 1.3604126q0.14901733 0.67729187 0.8020935 1.612442l3.0327454 4.3427277l-1.3451843 0.9391937zm10.600281 -9.192169l1.0241699 1.0572052q-0.4831848 0.5088501 -0.9315796 0.8219147q-0.7302551 0.5098419 -1.3012695 0.5654907q-0.5581665 0.046691895 -0.9841614 -0.20852661q-0.43493652 -0.2680359 -1.2758789 -1.4722137l-3.1937866 -4.573303l-0.9864807 0.68873596l-0.7246704 -1.0376434l0.98651123 -0.68873596l-1.3687744 -1.9599915l0.7687683 -1.7372894l1.932373 2.767044l1.3580322 -0.9481354l0.7246399 1.0376434l-1.3580322 0.9481354l3.2474976 4.6501617q0.39361572 0.56365967 0.5739746 0.6854706q0.19317627 0.11286926 0.41848755 0.10801697q0.2291565 -0.026611328 0.5366516 -0.24127197q0.21777344 -0.15206909 0.55352783 -0.46270752zm8.979065 -14.063004l-7.238495 5.053726l-0.86776733 -1.2426147l7.2384644 -5.053726l0.86779785 1.2426147zm2.3259888 3.3307037l-7.2384644 5.053726l-0.8767395 -1.2554169l7.238495 -5.053726l0.876709 1.2554169zm12.974121 -4.42749l-1.3451843 0.93917847l-5.985016 -8.570145q-0.1647644 0.80107117 -0.6280823 1.8296204q-0.45944214 1.0068054 -0.926178 1.6756744l-0.9125061 -1.3066559q0.7606201 -1.3123627 1.0783691 -2.6585236q0.3177185 -1.3461609 0.17160034 -2.2922363l0.8711548 -0.6082306l7.6758423 10.991318z" fill-rule="nonzero"/></g></svg>